<svg xmlns="http://www.w3.org/2000/svg" xmlns:xlink="http://www.w3.org/1999/xlink" viewBox="0 0 59.98 119.1"><defs><style>.cls-1{fill:url(#Unbenannter_Verlauf_40);}</style><linearGradient id="Unbenannter_Verlauf_40" x1="29.99" y1="119.1" x2="29.99" gradientUnits="userSpaceOnUse"><stop offset="0" stop-color="#7d4494"/><stop offset="1" stop-color="#6bc0ae"/></linearGradient></defs><g id="Ebene_2" data-name="Ebene 2"><g id="Ebene_1-2" data-name="Ebene 1"><path class="cls-1" d="M60,116.73a2.38,2.38,0,0,1-2.38,2.37H2.37a2.37,2.37,0,1,1,0-4.74H57.6A2.38,2.38,0,0,1,60,116.73ZM2.37,109.61H25.59v-68a5.47,5.47,0,0,1,1.76-4.13A6.26,6.26,0,0,0,25.59,27a6.21,6.21,0,0,0-4.74,0,6.26,6.26,0,0,0-1.76,10.47,5.47,5.47,0,0,1,1.76,4.13v63.32h-8.8V83.54A2.35,2.35,0,0,0,9.71,81.2H9.66a2.36,2.36,0,0,0-2.34,2.34v21.34H2.37a2.37,2.37,0,1,0,0,4.73Zm30.26-24a6.24,6.24,0,1,0,8.26,0,5.51,5.51,0,0,1-1.76-4.14v-72H20.86v10a2.3,2.3,0,0,0,2.34,2.28h.05a2.31,2.31,0,0,0,2.34-2.28V14.21h8.8V81.48A5.51,5.51,0,0,1,32.63,85.62Zm25,19.26h-5V62.56a2.06,2.06,0,0,1,.93-1.76,6.24,6.24,0,0,0,0-10.6,2.06,2.06,0,0,1-.93-1.76V14.21h5a2.37,2.37,0,0,0,0-4.74H47.93v39A2.07,2.07,0,0,1,47,50.2a6.25,6.25,0,0,0,0,10.6,2.07,2.07,0,0,1,.94,1.76v42.32h-8.8v-1.32a2.28,2.28,0,0,0-2.29-2.28h-.16a2.28,2.28,0,0,0-2.29,2.28v6.06H57.61a2.37,2.37,0,0,0,0-4.74ZM2.37,14.21h5V62a4.45,4.45,0,0,1-1.62,3.4,6.25,6.25,0,0,0,4,11.06A6.17,6.17,0,0,0,12.05,76a6.25,6.25,0,0,0,1.63-10.59A4.43,4.43,0,0,1,12.05,62V9.48H2.37a2.37,2.37,0,1,0,0,4.73Zm0-9.47H57.61a2.37,2.37,0,0,0,0-4.74H2.37a2.37,2.37,0,0,0,0,4.74Z"/></g></g></svg>